<svg xmlns="http://www.w3.org/2000/svg" xmlns:xlink="http://www.w3.org/1999/xlink" width="840" height="689.59"><rect width="840" height="689.59" rx="5" ry="5" class="a"/><svg y="0%" x="0%"><circle cx="20" cy="20" r="6" fill="#ff5f58"/><circle cx="40" cy="20" r="6" fill="#ffbd2e"/><circle cx="60" cy="20" r="6" fill="#18c132"/></svg><svg height="629.59" viewBox="0 0 80 62.959" width="800" x="15" xmlns="http://www.w3.org/2000/svg" xmlns:xlink="http://www.w3.org/1999/xlink" y="50"><style>@keyframes i{0%{transform:translateX(0)}.4%{transform:translateX(-80px)}9.6%{transform:translateX(-160px)}18.6%{transform:translateX(-240px)}27.7%{transform:translateX(-320px)}36.7%{transform:translateX(-400px)}45.8%{transform:translateX(-480px)}54.9%{transform:translateX(-560px)}63.9%{transform:translateX(-640px)}72.9%{transform:translateX(-720px)}82%{transform:translateX(-800px)}91%{transform:translateX(-880px)}to{transform:translateX(-960px)}}.a{fill:#282d35}.f{fill:#b9c0cb;white-space:pre}</style><g font-family="Monaco,Consolas,Menlo,'Bitstream Vera Sans Mono','Powerline Symbols',monospace" font-size="1.67"><defs><symbol id="1"><text x="2.004" y="1.67" class="f">RateGuard:</text><text x="13.026" y="1.67" class="f">runaway</text><text x="21.042" y="1.67" class="f">agent</text><text x="27.054" y="1.67" class="f">demo</text></symbol><symbol id="2"><text x="2.004" y="1.67" class="f">=============================================</text></symbol><symbol id="3"><text x="2.004" y="1.67" class="f">Task:</text><text x="10.02" y="1.67" class="f">an</text><text x="13.026" y="1.67" class="f">agent</text><text x="19.038" y="1.67" class="f">summarizing</text><text x="31.062" y="1.67" class="f">a</text><text x="33.066" y="1.67" class="f">doc</text><text x="37.074" y="1.67" class="f">set,</text><text x="42.084" y="1.67" class="f">one</text><text x="46.092" y="1.67" class="f">LLM</text><text x="50.1" y="1.67" class="f">call</text><text x="55.11" y="1.67" class="f">per</text><text x="59.118" y="1.67" class="f">chunk.</text></symbol><symbol id="4"><text x="2.004" y="1.67" class="f">Budget:</text><text x="10.02" y="1.67" class="f">5,000</text><text x="16.032" y="1.67" class="f">tokens/hour,</text><text x="29.058" y="1.67" class="f">hard</text><text x="34.068" y="1.67" class="f">stop.</text><text x="42.084" y="1.67" class="f">Model:</text><text x="49.098" y="1.67" class="f">gpt-4o.</text></symbol><symbol id="5"><text x="2.004" y="1.67" class="f">Guard:</text><text x="10.02" y="1.67" class="f">in-process,</text><text x="22.044" y="1.67" class="f">wrapping</text><text x="31.062" y="1.67" class="f">the</text><text x="35.07" y="1.67" class="f">OpenAI</text><text x="42.084" y="1.67" class="f">HTTP</text><text x="47.094" y="1.67" class="f">client.</text><text x="55.11" y="1.67" class="f">No</text><text x="58.116" y="1.67" class="f">proxy.</text></symbol><symbol id="6"><text x="2.004" y="1.67" class="f">call</text><text x="8.016" y="1.67" class="f">1</text><text x="12.024" y="1.67" class="f">+500</text><text x="17.034" y="1.67" class="f">tok</text><text x="23.046" y="1.67" class="f">used</text><text x="30.06" y="1.67" class="f">500</text><text x="34.068" y="1.67" class="f">/</text><text x="36.072" y="1.67" class="f">5,000</text><text x="44.088" y="1.67" class="f">[#.........]</text><text x="59.118" y="1.67" class="f">$0.0027</text></symbol><symbol id="7"><text x="2.004" y="1.67" class="f">call</text><text x="8.016" y="1.67" class="f">2</text><text x="12.024" y="1.67" class="f">+500</text><text x="17.034" y="1.67" class="f">tok</text><text x="23.046" y="1.67" class="f">used</text><text x="28.056" y="1.67" class="f">1,000</text><text x="34.068" y="1.67" class="f">/</text><text x="36.072" y="1.67" class="f">5,000</text><text x="44.088" y="1.67" class="f">[##........]</text><text x="59.118" y="1.67" class="f">$0.0055</text></symbol><symbol id="8"><text x="2.004" y="1.67" class="f">call</text><text x="8.016" y="1.67" class="f">3</text><text x="12.024" y="1.67" class="f">+500</text><text x="17.034" y="1.67" class="f">tok</text><text x="23.046" y="1.67" class="f">used</text><text x="28.056" y="1.67" class="f">1,500</text><text x="34.068" y="1.67" class="f">/</text><text x="36.072" y="1.67" class="f">5,000</text><text x="44.088" y="1.67" class="f">[###.......]</text><text x="59.118" y="1.67" class="f">$0.0083</text></symbol><symbol id="9"><text x="2.004" y="1.67" class="f">call</text><text x="8.016" y="1.67" class="f">4</text><text x="12.024" y="1.67" class="f">+500</text><text x="17.034" y="1.67" class="f">tok</text><text x="23.046" y="1.67" class="f">used</text><text x="28.056" y="1.67" class="f">2,000</text><text x="34.068" y="1.67" class="f">/</text><text x="36.072" y="1.67" class="f">5,000</text><text x="44.088" y="1.67" class="f">[####......]</text><text x="59.118" y="1.67" class="f">$0.0110</text></symbol><symbol id="10"><text x="2.004" y="1.67" class="f">call</text><text x="8.016" y="1.67" class="f">5</text><text x="12.024" y="1.67" class="f">+500</text><text x="17.034" y="1.67" class="f">tok</text><text x="23.046" y="1.67" class="f">used</text><text x="28.056" y="1.67" class="f">2,500</text><text x="34.068" y="1.67" class="f">/</text><text x="36.072" y="1.67" class="f">5,000</text><text x="44.088" y="1.67" class="f">[#####.....]</text><text x="59.118" y="1.67" class="f">$0.0138</text></symbol><symbol id="11"><text x="2.004" y="1.67" class="f">call</text><text x="8.016" y="1.67" class="f">6</text><text x="12.024" y="1.67" class="f">+500</text><text x="17.034" y="1.67" class="f">tok</text><text x="23.046" y="1.67" class="f">used</text><text x="28.056" y="1.67" class="f">3,000</text><text x="34.068" y="1.67" class="f">/</text><text x="36.072" y="1.67" class="f">5,000</text><text x="44.088" y="1.67" class="f">[######....]</text><text x="59.118" y="1.67" class="f">$0.0165</text></symbol><symbol id="12"><text x="2.004" y="1.67" class="f">call</text><text x="8.016" y="1.67" class="f">7</text><text x="12.024" y="1.67" class="f">+500</text><text x="17.034" y="1.67" class="f">tok</text><text x="23.046" y="1.67" class="f">used</text><text x="28.056" y="1.67" class="f">3,500</text><text x="34.068" y="1.67" class="f">/</text><text x="36.072" y="1.67" class="f">5,000</text><text x="44.088" y="1.67" class="f">[#######...]</text><text x="59.118" y="1.67" class="f">$0.0192</text></symbol><symbol id="13"><text x="2.004" y="1.67" class="f">call</text><text x="8.016" y="1.67" class="f">8</text><text x="12.024" y="1.67" class="f">+500</text><text x="17.034" y="1.67" class="f">tok</text><text x="23.046" y="1.67" class="f">used</text><text x="28.056" y="1.67" class="f">4,000</text><text x="34.068" y="1.67" class="f">/</text><text x="36.072" y="1.67" class="f">5,000</text><text x="44.088" y="1.67" class="f">[########..]</text><text x="59.118" y="1.67" class="f">$0.0220</text></symbol><symbol id="14"><text x="2.004" y="1.67" class="f">call</text><text x="8.016" y="1.67" class="f">9</text><text x="12.024" y="1.67" class="f">+500</text><text x="17.034" y="1.67" class="f">tok</text><text x="23.046" y="1.67" class="f">used</text><text x="28.056" y="1.67" class="f">4,500</text><text x="34.068" y="1.67" class="f">/</text><text x="36.072" y="1.67" class="f">5,000</text><text x="44.088" y="1.67" class="f">[#########.]</text><text x="59.118" y="1.67" class="f">$0.0248</text></symbol><symbol id="15"><text x="2.004" y="1.67" class="f">call</text><text x="7.014" y="1.67" class="f">10</text><text x="12.024" y="1.67" class="f">+500</text><text x="17.034" y="1.67" class="f">tok</text><text x="23.046" y="1.67" class="f">used</text><text x="28.056" y="1.67" class="f">5,000</text><text x="34.068" y="1.67" class="f">/</text><text x="36.072" y="1.67" class="f">5,000</text><text x="44.088" y="1.67" class="f">[##########]</text><text x="59.118" y="1.67" class="f">$0.0275</text></symbol><symbol id="a"><path fill="transparent" d="M0 0h80v30H0z"/></symbol><symbol id="b"><path fill="#6f7683" d="M0 0h1.102v2.171H0z"/></symbol></defs><path class="a" d="M0 0h80v62.959H0z"/><g style="animation-duration:2.784581s;animation-iteration-count:infinite;animation-name:i;animation-timing-function:steps(1,end)"><svg width="1040"><svg><use xlink:href="#a"/><use xlink:href="#b" x="-.004"/></svg><svg x="80"><use xlink:href="#a"/><use xlink:href="#b" x="-.004" y="15.172"/><use xlink:href="#1" y="2.171"/><use xlink:href="#2" y="4.342"/><use xlink:href="#3" y="6.513"/><use xlink:href="#4" y="8.684"/><use xlink:href="#5" y="10.855"/></svg><svg x="160"><use xlink:href="#a"/><use xlink:href="#b" x="-.004" y="17.343"/><use xlink:href="#1" y="2.171"/><use xlink:href="#2" y="4.342"/><use xlink:href="#3" y="6.513"/><use xlink:href="#4" y="8.684"/><use xlink:href="#5" y="10.855"/><use xlink:href="#6" y="15.197"/></svg><svg x="240"><use xlink:href="#a"/><use xlink:href="#b" x="-.004" y="19.514"/><use xlink:href="#1" y="2.171"/><use xlink:href="#2" y="4.342"/><use xlink:href="#3" y="6.513"/><use xlink:href="#4" y="8.684"/><use xlink:href="#5" y="10.855"/><use xlink:href="#6" y="15.197"/><use xlink:href="#7" y="17.368"/></svg><svg x="320"><use xlink:href="#a"/><use xlink:href="#b" x="-.004" y="21.685"/><use xlink:href="#1" y="2.171"/><use xlink:href="#2" y="4.342"/><use xlink:href="#3" y="6.513"/><use xlink:href="#4" y="8.684"/><use xlink:href="#5" y="10.855"/><use xlink:href="#6" y="15.197"/><use xlink:href="#7" y="17.368"/><use xlink:href="#8" y="19.539"/></svg><svg x="400"><use xlink:href="#a"/><use xlink:href="#b" x="-.004" y="23.856"/><use xlink:href="#1" y="2.171"/><use xlink:href="#2" y="4.342"/><use xlink:href="#3" y="6.513"/><use xlink:href="#4" y="8.684"/><use xlink:href="#5" y="10.855"/><use xlink:href="#6" y="15.197"/><use xlink:href="#7" y="17.368"/><use xlink:href="#8" y="19.539"/><use xlink:href="#9" y="21.71"/></svg><svg x="480"><use xlink:href="#a"/><use xlink:href="#b" x="-.004" y="26.027"/><use xlink:href="#1" y="2.171"/><use xlink:href="#2" y="4.342"/><use xlink:href="#3" y="6.513"/><use xlink:href="#4" y="8.684"/><use xlink:href="#5" y="10.855"/><use xlink:href="#6" y="15.197"/><use xlink:href="#7" y="17.368"/><use xlink:href="#8" y="19.539"/><use xlink:href="#9" y="21.71"/><use xlink:href="#10" y="23.881"/></svg><svg x="560"><use xlink:href="#a"/><use xlink:href="#b" x="-.004" y="28.198"/><use xlink:href="#1" y="2.171"/><use xlink:href="#2" y="4.342"/><use xlink:href="#3" y="6.513"/><use xlink:href="#4" y="8.684"/><use xlink:href="#5" y="10.855"/><use xlink:href="#6" y="15.197"/><use xlink:href="#7" y="17.368"/><use xlink:href="#8" y="19.539"/><use xlink:href="#9" y="21.71"/><use xlink:href="#10" y="23.881"/><use xlink:href="#11" y="26.052"/></svg><svg x="640"><use xlink:href="#a"/><use xlink:href="#b" x="-.004" y="30.369"/><use xlink:href="#1" y="2.171"/><use xlink:href="#2" y="4.342"/><use xlink:href="#3" y="6.513"/><use xlink:href="#4" y="8.684"/><use xlink:href="#5" y="10.855"/><use xlink:href="#6" y="15.197"/><use xlink:href="#7" y="17.368"/><use xlink:href="#8" y="19.539"/><use xlink:href="#9" y="21.71"/><use xlink:href="#10" y="23.881"/><use xlink:href="#11" y="26.052"/><use xlink:href="#12" y="28.223"/></svg><svg x="720"><use xlink:href="#a"/><use xlink:href="#b" x="-.004" y="32.54"/><use xlink:href="#1" y="2.171"/><use xlink:href="#2" y="4.342"/><use xlink:href="#3" y="6.513"/><use xlink:href="#4" y="8.684"/><use xlink:href="#5" y="10.855"/><use xlink:href="#6" y="15.197"/><use xlink:href="#7" y="17.368"/><use xlink:href="#8" y="19.539"/><use xlink:href="#9" y="21.71"/><use xlink:href="#10" y="23.881"/><use xlink:href="#11" y="26.052"/><use xlink:href="#12" y="28.223"/><use xlink:href="#13" y="30.394"/></svg><svg x="800"><use xlink:href="#a"/><use xlink:href="#b" x="-.004" y="34.711"/><use xlink:href="#1" y="2.171"/><use xlink:href="#2" y="4.342"/><use xlink:href="#3" y="6.513"/><use xlink:href="#4" y="8.684"/><use xlink:href="#5" y="10.855"/><use xlink:href="#6" y="15.197"/><use xlink:href="#7" y="17.368"/><use xlink:href="#8" y="19.539"/><use xlink:href="#9" y="21.71"/><use xlink:href="#10" y="23.881"/><use xlink:href="#11" y="26.052"/><use xlink:href="#12" y="28.223"/><use xlink:href="#13" y="30.394"/><use xlink:href="#14" y="32.565"/></svg><svg x="880"><use xlink:href="#a"/><use xlink:href="#b" x="-.004" y="36.882"/><use xlink:href="#1" y="2.171"/><use xlink:href="#2" y="4.342"/><use xlink:href="#3" y="6.513"/><use xlink:href="#4" y="8.684"/><use xlink:href="#5" y="10.855"/><use xlink:href="#6" y="15.197"/><use xlink:href="#7" y="17.368"/><use xlink:href="#8" y="19.539"/><use xlink:href="#9" y="21.71"/><use xlink:href="#10" y="23.881"/><use xlink:href="#11" y="26.052"/><use xlink:href="#12" y="28.223"/><use xlink:href="#13" y="30.394"/><use xlink:href="#14" y="32.565"/><use xlink:href="#15" y="34.736"/></svg><svg x="960"><use xlink:href="#a"/><use xlink:href="#b" x="-.004" y="56.421"/><use xlink:href="#1" y="2.171"/><use xlink:href="#2" y="4.342"/><use xlink:href="#3" y="6.513"/><use xlink:href="#4" y="8.684"/><use xlink:href="#5" y="10.855"/><use xlink:href="#6" y="15.197"/><use xlink:href="#7" y="17.368"/><use xlink:href="#8" y="19.539"/><use xlink:href="#9" y="21.71"/><use xlink:href="#10" y="23.881"/><use xlink:href="#11" y="26.052"/><use xlink:href="#12" y="28.223"/><use xlink:href="#13" y="30.394"/><use xlink:href="#14" y="32.565"/><use xlink:href="#15" y="34.736"/><text x="2.004" y="38.577" class="f">call</text><text x="7.014" y="38.577" class="f">11</text><text x="12.024" y="38.577" class="f">BLOCKED</text><text x="21.042" y="38.577" class="f">429</text><text x="25.05" y="38.577" class="f">token_budget_exceeded</text><text x="12.024" y="40.748" class="f">RateGuard</text><text x="22.044" y="40.748" class="f">halted</text><text x="29.058" y="40.748" class="f">the</text><text x="33.066" y="40.748" class="f">agent</text><text x="39.078" y="40.748" class="f">before</text><text x="46.092" y="40.748" class="f">the</text><text x="50.1" y="40.748" class="f">request</text><text x="58.116" y="40.748" class="f">left</text><text x="63.126" y="40.748" class="f">your</text><text x="68.136" y="40.748" class="f">process.</text><use xlink:href="#2" y="43.42"/><text x="2.004" y="47.261" class="f">No</text><text x="5.01" y="47.261" class="f">budget</text><text x="12.024" y="47.261" class="f">means</text><text x="18.036" y="47.261" class="f">no</text><text x="21.042" y="47.261" class="f">stop</text><text x="26.052" y="47.261" class="f">condition:</text><text x="37.074" y="47.261" class="f">the</text><text x="41.082" y="47.261" class="f">loop</text><text x="46.092" y="47.261" class="f">runs</text><text x="51.102" y="47.261" class="f">until</text><text x="57.114" y="47.261" class="f">the</text><text x="61.122" y="47.261" class="f">docs</text><text x="2.004" y="49.432" class="f">or</text><text x="5.01" y="49.432" class="f">the</text><text x="9.018" y="49.432" class="f">bill</text><text x="14.028" y="49.432" class="f">run</text><text x="18.036" y="49.432" class="f">out.</text><text x="23.046" y="49.432" class="f">Real</text><text x="28.056" y="49.432" class="f">runaways</text><text x="37.074" y="49.432" class="f">have</text><text x="42.084" y="49.432" class="f">hit</text><text x="46.092" y="49.432" class="f">$6,531</text><text x="53.106" y="49.432" class="f">overnight.</text><text x="2.004" y="51.603" class="f">RateGuard</text><text x="12.024" y="51.603" class="f">stopped</text><text x="20.04" y="51.603" class="f">this</text><text x="25.05" y="51.603" class="f">one</text><text x="29.058" y="51.603" class="f">at</text><text x="32.064" y="51.603" class="f">the</text><text x="36.072" y="51.603" class="f">line</text><text x="41.082" y="51.603" class="f">you</text><text x="45.09" y="51.603" class="f">set,</text><text x="50.1" y="51.603" class="f">in-process,</text><text x="2.004" y="53.774" class="f">before</text><text x="9.018" y="53.774" class="f">the</text><text x="13.026" y="53.774" class="f">spend.</text><text x="20.04" y="53.774" class="f">One</text><text x="24.048" y="53.774" class="f">wrapped</text><text x="32.064" y="53.774" class="f">client.</text><text x="40.08" y="53.774" class="f">No</text><text x="43.086" y="53.774" class="f">gateway.</text></svg></svg></g></g></svg></svg>